<svg width="137" height="23" viewBox="0 0 137 23" fill="none" xmlns="http://www.w3.org/2000/svg">
<path d="M126.475 12.1289V13.0195H120.311V12.3809L124.131 6.46875H125.016L124.066 8.17969L121.541 12.1289H126.475ZM125.285 6.46875V15H124.201V6.46875H125.285ZM127.594 14.4258C127.594 14.2422 127.65 14.0879 127.764 13.9629C127.881 13.834 128.049 13.7695 128.268 13.7695C128.486 13.7695 128.652 13.834 128.766 13.9629C128.883 14.0879 128.941 14.2422 128.941 14.4258C128.941 14.6055 128.883 14.7578 128.766 14.8828C128.652 15.0078 128.486 15.0703 128.268 15.0703C128.049 15.0703 127.881 15.0078 127.764 14.8828C127.65 14.7578 127.594 14.6055 127.594 14.4258ZM131.701 14.0918H131.812C132.438 14.0918 132.945 14.0039 133.336 13.8281C133.727 13.6523 134.027 13.416 134.238 13.1191C134.449 12.8223 134.594 12.4883 134.672 12.1172C134.75 11.7422 134.789 11.3574 134.789 10.9629V9.65625C134.789 9.26953 134.744 8.92578 134.654 8.625C134.568 8.32422 134.447 8.07227 134.291 7.86914C134.139 7.66602 133.965 7.51172 133.77 7.40625C133.574 7.30078 133.367 7.24805 133.148 7.24805C132.898 7.24805 132.674 7.29883 132.475 7.40039C132.279 7.49805 132.113 7.63672 131.977 7.81641C131.844 7.99609 131.742 8.20703 131.672 8.44922C131.602 8.69141 131.566 8.95508 131.566 9.24023C131.566 9.49414 131.598 9.74023 131.66 9.97852C131.723 10.2168 131.818 10.4316 131.947 10.623C132.076 10.8145 132.236 10.9668 132.428 11.0801C132.623 11.1895 132.852 11.2441 133.113 11.2441C133.355 11.2441 133.582 11.1973 133.793 11.1035C134.008 11.0059 134.197 10.875 134.361 10.7109C134.529 10.543 134.662 10.3535 134.76 10.1426C134.861 9.93164 134.92 9.71094 134.936 9.48047H135.451C135.451 9.80469 135.387 10.125 135.258 10.4414C135.133 10.7539 134.957 11.0391 134.73 11.2969C134.504 11.5547 134.238 11.7617 133.934 11.918C133.629 12.0703 133.297 12.1465 132.938 12.1465C132.516 12.1465 132.15 12.0645 131.842 11.9004C131.533 11.7363 131.279 11.5176 131.08 11.2441C130.885 10.9707 130.738 10.666 130.641 10.3301C130.547 9.99023 130.5 9.64648 130.5 9.29883C130.5 8.89258 130.557 8.51172 130.67 8.15625C130.783 7.80078 130.951 7.48828 131.174 7.21875C131.396 6.94531 131.672 6.73242 132 6.58008C132.332 6.42773 132.715 6.35156 133.148 6.35156C133.637 6.35156 134.053 6.44922 134.396 6.64453C134.74 6.83984 135.02 7.10156 135.234 7.42969C135.453 7.75781 135.613 8.12695 135.715 8.53711C135.816 8.94727 135.867 9.36914 135.867 9.80273V10.1953C135.867 10.6367 135.838 11.0859 135.779 11.543C135.725 11.9961 135.617 12.4297 135.457 12.8438C135.301 13.2578 135.072 13.6289 134.771 13.957C134.471 14.2812 134.078 14.5391 133.594 14.7305C133.113 14.918 132.52 15.0117 131.812 15.0117H131.701V14.0918Z" fill="#074A76"/>
<path d="M9.39789 5.8541C9.99659 4.01148 12.6034 4.01148 13.2021 5.8541L13.388 6.42614C13.6557 7.25019 14.4236 7.80811 15.2901 7.80811H15.8916C17.829 7.80811 18.6346 10.2873 17.0671 11.4261L16.5805 11.7797C15.8796 12.289 15.5862 13.1917 15.854 14.0157L16.0399 14.5878C16.6386 16.4304 14.5296 17.9627 12.9622 16.8239L12.4756 16.4703C11.7746 15.961 10.8254 15.961 10.1244 16.4703L9.63782 16.8239C8.0704 17.9627 5.96144 16.4304 6.56014 14.5878L6.74601 14.0158C7.01375 13.1917 6.72044 12.289 6.01946 11.7797L5.53286 11.4261C3.96543 10.2873 4.77098 7.80811 6.70843 7.80811H7.30991C8.17636 7.80811 8.94427 7.25019 9.21202 6.42614L9.39789 5.8541Z" fill="#074A76"/>
<path d="M31.9979 5.8541C32.5966 4.01148 35.2034 4.01148 35.8021 5.8541L35.988 6.42614C36.2557 7.25019 37.0236 7.80811 37.8901 7.80811H38.4915C40.429 7.80811 41.2345 10.2873 39.6671 11.4261L39.1805 11.7797C38.4795 12.289 38.1862 13.1917 38.454 14.0157L38.6398 14.5878C39.2385 16.4304 37.1296 17.9627 35.5622 16.8239L35.0755 16.4703C34.3746 15.961 33.4254 15.961 32.7244 16.4703L32.2378 16.8239C30.6704 17.9627 28.5614 16.4304 29.1601 14.5878L29.346 14.0158C29.6137 13.1917 29.3204 12.289 28.6194 11.7797L28.1328 11.4261C26.5654 10.2873 27.371 7.80811 29.3084 7.80811H29.9099C30.7763 7.80811 31.5442 7.25019 31.812 6.42614L31.9979 5.8541Z" fill="#074A76"/>
<path d="M54.598 5.8541C55.1967 4.01148 57.8035 4.01148 58.4022 5.8541L58.5881 6.42614C58.8558 7.25019 59.6237 7.80811 60.4902 7.80811H61.0916C63.0291 7.80811 63.8346 10.2873 62.2672 11.4261L61.7806 11.7797C61.0796 12.289 60.7863 13.1917 61.0541 14.0157L61.2399 14.5878C61.8386 16.4304 59.7297 17.9627 58.1623 16.8239L57.6756 16.4703C56.9747 15.961 56.0255 15.961 55.3245 16.4703L54.8379 16.8239C53.2705 17.9627 51.1615 16.4304 51.7602 14.5878L51.9461 14.0158C52.2138 13.1917 51.9205 12.289 51.2195 11.7797L50.7329 11.4261C49.1655 10.2873 49.9711 7.80811 51.9085 7.80811H52.51C53.3764 7.80811 54.1443 7.25019 54.4121 6.42614L54.598 5.8541Z" fill="#074A76"/>
<path d="M77.6733 6.00861C78.1224 4.62664 80.0775 4.62664 80.5265 6.00861L80.7124 6.58065C81.0471 7.61071 82.007 8.30811 83.09 8.30811H83.6915C85.1446 8.30811 85.7487 10.1675 84.5732 11.0216L84.0866 11.3752C83.2104 12.0118 82.8437 13.1402 83.1784 14.1703L83.3643 14.7423C83.8133 16.1243 82.2316 17.2735 81.056 16.4194L80.5694 16.0658C79.6932 15.4292 78.5067 15.4292 77.6305 16.0658L77.1439 16.4193C75.9683 17.2735 74.3866 16.1243 74.8356 14.7423L75.0215 14.1703C75.3561 13.1402 74.9895 12.0118 74.1133 11.3752L73.6267 11.0216C72.4511 10.1675 73.0553 8.30811 74.5084 8.30811H75.1098C76.1929 8.30811 77.1528 7.61071 77.4875 6.58065L77.6733 6.00861Z" stroke="#074A76"/>
<path d="M100.273 6.00861C100.722 4.62664 102.678 4.62664 103.127 6.00861L103.312 6.58065C103.647 7.61071 104.607 8.30811 105.69 8.30811H106.292C107.745 8.30811 108.349 10.1675 107.173 11.0216L106.687 11.3752C105.81 12.0118 105.444 13.1402 105.778 14.1703L105.964 14.7423C106.413 16.1243 104.832 17.2735 103.656 16.4194L103.169 16.0658C102.293 15.4292 101.107 15.4292 100.231 16.0658L99.744 16.4193C98.5684 17.2735 96.9867 16.1243 97.4357 14.7423L97.6216 14.1703C97.9562 13.1402 97.5896 12.0118 96.7134 11.3752L96.2268 11.0216C95.0512 10.1675 95.6554 8.30811 97.1085 8.30811H97.7099C98.793 8.30811 99.7529 7.61071 100.088 6.58065L100.273 6.00861Z" stroke="#074A76"/>
</svg>
