<svg width="14" height="14" viewBox="0 0 14 14" fill="none" xmlns="http://www.w3.org/2000/svg">
<path d="M8.12661 2.00861L8.31248 2.58065C8.64716 3.61071 9.60705 4.30811 10.6901 4.30811H11.2916C12.7447 4.30811 13.3488 6.16753 12.1733 7.02163L11.6867 7.37517C10.8105 8.01178 10.4438 9.1402 10.7785 10.1703L10.9644 10.7423C11.4134 12.1243 9.83167 13.2735 8.65609 12.4194L8.16949 12.0658C7.29327 11.4292 6.10678 11.4292 5.23056 12.0658L4.74395 12.4193C3.56838 13.2735 1.98666 12.1243 2.43569 10.7423L2.62156 10.1703C2.95624 9.1402 2.5896 8.01178 1.71338 7.37517L1.22677 7.02163C0.0512047 6.16753 0.655368 4.30811 2.10845 4.30811H2.70993C3.793 4.30811 4.75289 3.61071 5.08757 2.58065L5.27344 2.00861C5.72247 0.626644 7.67758 0.626644 8.12661 2.00861Z" stroke="#074A76"/>
</svg>
