<svg width="14" height="14" viewBox="0 0 14 14" fill="none" xmlns="http://www.w3.org/2000/svg">
<g clip-path="url(#clip0_17_2)">
<path d="M7.00001 14C7.00001 14 2.10001 7.609 2.10001 4.9C2.10001 4.25652 2.22675 3.61935 2.473 3.02485C2.71924 2.43036 3.08018 1.89018 3.53518 1.43518C3.99019 0.98017 4.53036 0.619238 5.12486 0.37299C5.71935 0.126742 6.35653 0 7.00001 0C7.64348 0 8.28066 0.126742 8.87515 0.37299C9.46965 0.619238 10.0098 0.98017 10.4648 1.43518C10.9198 1.89018 11.2808 2.43036 11.527 3.02485C11.7733 3.61935 11.9 4.25652 11.9 4.9C11.9 7.609 7.00001 14 7.00001 14ZM7.00001 6.3C7.37131 6.3 7.7274 6.1525 7.98996 5.88995C8.25251 5.6274 8.40001 5.2713 8.40001 4.9C8.40001 4.5287 8.25251 4.1726 7.98996 3.91005C7.7274 3.6475 7.37131 3.5 7.00001 3.5C6.6287 3.5 6.27261 3.6475 6.01006 3.91005C5.74751 4.1726 5.60001 4.5287 5.60001 4.9C5.60001 5.2713 5.74751 5.6274 6.01006 5.88995C6.27261 6.1525 6.6287 6.3 7.00001 6.3Z" fill="black"/>
</g>
<defs>
<clipPath id="clip0_17_2">
<rect width="14" height="14" fill="white"/>
</clipPath>
</defs>
</svg>
