<svg width="14" height="14" viewBox="0 0 14 14" fill="none" xmlns="http://www.w3.org/2000/svg">
<path d="M6.99999 7.42286C8.4207 7.42286 9.57141 6.26363 9.57141 4.83238C9.57141 3.40115 8.4207 2.24191 6.99999 2.24191C5.57927 2.24191 4.42856 3.40115 4.42856 4.83238C4.42856 6.26363 5.57927 7.42286 6.99999 7.42286Z" fill="#333333"/>
<path d="M4.96532 8.34345C5.10898 8.30813 5.25632 8.38036 5.32155 8.51402L6.48266 9.37125C7 9.37113 7 9.37128 7.51729 9.37116L8.67846 8.51402C8.74369 8.38036 8.89103 8.30813 9.03469 8.34345C10.5787 8.72288 12.1429 9.49656 12.1429 10.6604V11.9557H1.85715V10.6604C1.85715 9.49656 3.42129 8.72288 4.96532 8.34345Z" fill="#333333"/>
</svg>
