<svg width="14" height="14" viewBox="0 0 14 14" fill="none" xmlns="http://www.w3.org/2000/svg">
<path d="M4.99786 1.8541C5.59657 0.0114801 8.20338 0.0114806 8.80209 1.8541L8.98796 2.42614C9.2557 3.25019 10.0236 3.80811 10.8901 3.80811H11.4915C13.429 3.80811 14.2345 6.28734 12.6671 7.42614L12.1805 7.77968C11.4795 8.28897 11.1862 9.1917 11.454 10.0158L11.6398 10.5878C12.2385 12.4304 10.1296 13.9627 8.56215 12.8239L8.07555 12.4703C7.37457 11.961 6.42538 11.961 5.72441 12.4703L5.2378 12.8239C3.67037 13.9627 1.56141 12.4304 2.16012 10.5878L2.34598 10.0158C2.61373 9.19171 2.32041 8.28897 1.61944 7.77968L1.13283 7.42614C-0.434594 6.28734 0.370957 3.80811 2.3084 3.80811H2.90988C3.77633 3.80811 4.54425 3.25019 4.812 2.42614L4.99786 1.8541Z" fill="#074A76"/>
</svg>
